<mxfile host="65bd71144e" modified="2020-12-15T21:04:40.185Z" agent="5.0 (Windows NT 10.0; Win64; x64) AppleWebKit/537.36 (KHTML, like Gecko) Code/1.52.0 Chrome/83.0.4103.122 Electron/9.3.5 Safari/537.36" etag="fy3vdnbm_TmOppK6M7cW" version="13.10.0" type="embed">
    <diagram id="05aacPn5sCKNKC9QBRzQ" name="Page-1">
        <mxGraphModel dx="2708" dy="478" grid="1" gridSize="10" guides="1" tooltips="1" connect="1" arrows="1" fold="1" page="1" pageScale="1" pageWidth="827" pageHeight="1169" math="0" shadow="0">
            <root>
                <mxCell id="0"/>
                <mxCell id="1" parent="0"/>
                <mxCell id="196" value="=&amp;nbsp;" style="rounded=0;whiteSpace=wrap;html=1;fontColor=#1A1A1A;strokeWidth=3;dashed=1;strokeColor=#FF99CC;fillColor=#2A0F05;" parent="1" vertex="1">
                    <mxGeometry x="-1210" y="130" width="1640" height="1960" as="geometry"/>
                </mxCell>
                <mxCell id="218" value="" style="rounded=0;whiteSpace=wrap;html=1;dashed=1;strokeWidth=3;fillColor=#2a2a2a;fontSize=50;fontColor=#007FFF;strokeColor=#00CC66;" parent="1" vertex="1">
                    <mxGeometry x="160" y="210" width="210" height="450" as="geometry"/>
                </mxCell>
                <mxCell id="207" value="" style="rounded=0;whiteSpace=wrap;html=1;fontColor=#1A1A1A;strokeWidth=3;dashed=1;strokeColor=#007FFF;" parent="1" vertex="1">
                    <mxGeometry x="-1050.01" y="1070" width="429.99" height="180" as="geometry"/>
                </mxCell>
                <mxCell id="188" style="edgeStyle=orthogonalEdgeStyle;rounded=0;orthogonalLoop=1;jettySize=auto;html=1;fontSize=15;fontColor=#FF8000;" parent="1" source="174" target="184" edge="1">
                    <mxGeometry relative="1" as="geometry">
                        <Array as="points">
                            <mxPoint x="70" y="1835"/>
                            <mxPoint x="70" y="1835"/>
                        </Array>
                    </mxGeometry>
                </mxCell>
                <mxCell id="189" style="edgeStyle=orthogonalEdgeStyle;rounded=0;orthogonalLoop=1;jettySize=auto;html=1;entryX=0.169;entryY=1;entryDx=0;entryDy=0;entryPerimeter=0;fontSize=15;fontColor=#FF8000;" parent="1" source="174" target="131" edge="1">
                    <mxGeometry relative="1" as="geometry">
                        <Array as="points">
                            <mxPoint x="-360" y="1650"/>
                            <mxPoint x="-360" y="1650"/>
                        </Array>
                    </mxGeometry>
                </mxCell>
                <mxCell id="174" value="" style="rounded=0;whiteSpace=wrap;html=1;fontColor=#1A1A1A;strokeWidth=3;dashed=1;strokeColor=#3399FF;" parent="1" vertex="1">
                    <mxGeometry x="-430" y="1650" width="510" height="390" as="geometry"/>
                </mxCell>
                <mxCell id="169" style="edgeStyle=orthogonalEdgeStyle;rounded=0;orthogonalLoop=1;jettySize=auto;html=1;fontSize=15;fontColor=#FFCC99;" parent="1" source="155" target="131" edge="1">
                    <mxGeometry relative="1" as="geometry">
                        <Array as="points">
                            <mxPoint x="-450" y="1650"/>
                        </Array>
                    </mxGeometry>
                </mxCell>
                <mxCell id="155" value="" style="rounded=0;whiteSpace=wrap;html=1;fontColor=#1A1A1A;strokeWidth=3;dashed=1;strokeColor=#FFCC99;" parent="1" vertex="1">
                    <mxGeometry x="-1050" y="1625" width="510" height="350" as="geometry"/>
                </mxCell>
                <mxCell id="146" style="edgeStyle=orthogonalEdgeStyle;rounded=0;orthogonalLoop=1;jettySize=auto;html=1;entryX=0.002;entryY=0.543;entryDx=0;entryDy=0;entryPerimeter=0;fontSize=15;fontColor=#CC00CC;" parent="1" source="143" target="131" edge="1">
                    <mxGeometry relative="1" as="geometry">
                        <Array as="points">
                            <mxPoint x="-540" y="1419"/>
                            <mxPoint x="-540" y="1419"/>
                        </Array>
                    </mxGeometry>
                </mxCell>
                <mxCell id="168" style="edgeStyle=orthogonalEdgeStyle;rounded=0;orthogonalLoop=1;jettySize=auto;html=1;entryX=0.884;entryY=0.005;entryDx=0;entryDy=0;entryPerimeter=0;fontSize=15;fontColor=#FFCC99;" parent="1" source="143" target="155" edge="1">
                    <mxGeometry relative="1" as="geometry">
                        <Array as="points">
                            <mxPoint x="-599" y="1535"/>
                            <mxPoint x="-599" y="1535"/>
                        </Array>
                    </mxGeometry>
                </mxCell>
                <mxCell id="143" value="" style="rounded=0;whiteSpace=wrap;html=1;fontColor=#1A1A1A;strokeWidth=3;dashed=1;strokeColor=#CC00CC;" parent="1" vertex="1">
                    <mxGeometry x="-1050.01" y="1330" width="490" height="230" as="geometry"/>
                </mxCell>
                <mxCell id="144" value="Products" style="text;html=1;strokeColor=none;fillColor=none;align=center;verticalAlign=middle;whiteSpace=wrap;rounded=0;dashed=1;fontSize=50;fontColor=#CC00CC;" parent="1" vertex="1">
                    <mxGeometry x="-963.4499999999999" y="1270" width="326.87" height="60" as="geometry"/>
                </mxCell>
                <mxCell id="131" value="" style="rounded=0;whiteSpace=wrap;html=1;fontColor=#1A1A1A;strokeWidth=3;dashed=1;strokeColor=#00FF00;" parent="1" vertex="1">
                    <mxGeometry x="-480" y="1240" width="710" height="330" as="geometry"/>
                </mxCell>
                <mxCell id="133" style="edgeStyle=orthogonalEdgeStyle;rounded=0;orthogonalLoop=1;jettySize=auto;html=1;fontSize=15;fontColor=#00FF00;" parent="1" source="104" target="131" edge="1">
                    <mxGeometry relative="1" as="geometry">
                        <Array as="points">
                            <mxPoint x="-350" y="1220"/>
                            <mxPoint x="-350" y="1220"/>
                        </Array>
                    </mxGeometry>
                </mxCell>
                <mxCell id="104" value="" style="rounded=0;whiteSpace=wrap;html=1;fontColor=#1A1A1A;strokeWidth=3;dashed=1;strokeColor=#7F00FF;" parent="1" vertex="1">
                    <mxGeometry x="-480" y="710" width="790" height="440" as="geometry"/>
                </mxCell>
                <mxCell id="115" style="edgeStyle=orthogonalEdgeStyle;rounded=0;orthogonalLoop=1;jettySize=auto;html=1;entryX=-0.001;entryY=0.398;entryDx=0;entryDy=0;entryPerimeter=0;fontSize=15;fontColor=#7F00FF;" parent="1" source="99" target="104" edge="1">
                    <mxGeometry relative="1" as="geometry">
                        <Array as="points">
                            <mxPoint x="-550" y="885"/>
                            <mxPoint x="-550" y="885"/>
                        </Array>
                    </mxGeometry>
                </mxCell>
                <mxCell id="99" value="" style="rounded=0;whiteSpace=wrap;html=1;fontColor=#1A1A1A;strokeWidth=3;dashed=1;strokeColor=#FF0000;" parent="1" vertex="1">
                    <mxGeometry x="-1110" y="780" width="540" height="200" as="geometry"/>
                </mxCell>
                <mxCell id="60" value="" style="rounded=0;whiteSpace=wrap;html=1;dashed=1;strokeWidth=3;fillColor=#2a2a2a;fontSize=50;fontColor=#007FFF;strokeColor=#007FFF;" parent="1" vertex="1">
                    <mxGeometry x="-480" y="210" width="595" height="380" as="geometry"/>
                </mxCell>
                <mxCell id="61" value="Users / Roles" style="text;html=1;strokeColor=none;fillColor=none;align=center;verticalAlign=middle;whiteSpace=wrap;rounded=0;dashed=1;fontSize=50;fontColor=#007FFF;" parent="1" vertex="1">
                    <mxGeometry x="-361.25" y="150" width="332.5" height="60" as="geometry"/>
                </mxCell>
                <mxCell id="91" style="edgeStyle=orthogonalEdgeStyle;rounded=0;orthogonalLoop=1;jettySize=auto;html=1;" parent="1" source="62" target="85" edge="1">
                    <mxGeometry relative="1" as="geometry">
                        <Array as="points">
                            <mxPoint x="-395" y="430"/>
                            <mxPoint x="-345" y="430"/>
                        </Array>
                    </mxGeometry>
                </mxCell>
                <mxCell id="62" value="users" style="swimlane;strokeColor=#006EAF;fillColor=#1ba1e2;fontColor=#ffffff;startSize=30;" parent="1" vertex="1">
                    <mxGeometry x="-458" y="240" width="140" height="160" as="geometry">
                        <mxRectangle x="230" y="110" width="80" height="30" as="alternateBounds"/>
                    </mxGeometry>
                </mxCell>
                <mxCell id="63" value="id&#10;person_id&#10;email&#10;email_verified_at&#10;password&#10;remember_token&#10;created_at&#10;updated_at" style="text;strokeColor=none;align=left;verticalAlign=middle;spacingLeft=4;spacingRight=4;overflow=hidden;rotatable=0;points=[[0,0.5],[1,0.5]];portConstraint=eastwest;fontColor=#1A1A1A;fillColor=#FFFFFF;" parent="62" vertex="1">
                    <mxGeometry y="30" width="140" height="130" as="geometry"/>
                </mxCell>
                <mxCell id="100" style="edgeStyle=orthogonalEdgeStyle;rounded=0;orthogonalLoop=1;jettySize=auto;html=1;fontColor=#FF0000;" parent="1" source="40" target="99" edge="1">
                    <mxGeometry relative="1" as="geometry">
                        <mxPoint x="-600" y="800" as="targetPoint"/>
                        <Array as="points">
                            <mxPoint x="-1020" y="730"/>
                            <mxPoint x="-1020" y="730"/>
                        </Array>
                    </mxGeometry>
                </mxCell>
                <mxCell id="106" style="edgeStyle=orthogonalEdgeStyle;rounded=0;orthogonalLoop=1;jettySize=auto;html=1;fontSize=15;fontColor=#7F00FF;" parent="1" source="40" target="104" edge="1">
                    <mxGeometry relative="1" as="geometry">
                        <Array as="points">
                            <mxPoint x="-630" y="750"/>
                        </Array>
                    </mxGeometry>
                </mxCell>
                <mxCell id="161" style="edgeStyle=orthogonalEdgeStyle;rounded=0;orthogonalLoop=1;jettySize=auto;html=1;entryX=0;entryY=0.479;entryDx=0;entryDy=0;entryPerimeter=0;fontSize=15;fontColor=#CC00CC;" parent="1" source="40" target="155" edge="1">
                    <mxGeometry relative="1" as="geometry">
                        <Array as="points">
                            <mxPoint x="-1160" y="450"/>
                            <mxPoint x="-1160" y="1738"/>
                        </Array>
                    </mxGeometry>
                </mxCell>
                <mxCell id="193" style="edgeStyle=orthogonalEdgeStyle;rounded=0;orthogonalLoop=1;jettySize=auto;html=1;entryX=0.5;entryY=1;entryDx=0;entryDy=0;fontSize=15;fontColor=#FF8000;" parent="1" source="40" target="184" edge="1">
                    <mxGeometry relative="1" as="geometry">
                        <Array as="points">
                            <mxPoint x="-1180" y="560"/>
                            <mxPoint x="-1180" y="2060"/>
                            <mxPoint x="260" y="2060"/>
                        </Array>
                    </mxGeometry>
                </mxCell>
                <mxCell id="211" style="edgeStyle=orthogonalEdgeStyle;rounded=0;orthogonalLoop=1;jettySize=auto;html=1;entryX=-0.001;entryY=0.665;entryDx=0;entryDy=0;entryPerimeter=0;fontSize=15;fontColor=#0000CC;" parent="1" source="40" target="207" edge="1">
                    <mxGeometry relative="1" as="geometry">
                        <Array as="points">
                            <mxPoint x="-1130" y="1190"/>
                        </Array>
                    </mxGeometry>
                </mxCell>
                <mxCell id="214" style="edgeStyle=orthogonalEdgeStyle;rounded=0;orthogonalLoop=1;jettySize=auto;html=1;entryX=0.003;entryY=0.63;entryDx=0;entryDy=0;entryPerimeter=0;fontSize=15;fontColor=#FFFFFF;" parent="1" source="40" target="60" edge="1">
                    <mxGeometry relative="1" as="geometry"/>
                </mxCell>
                <mxCell id="40" value="" style="rounded=0;whiteSpace=wrap;html=1;fontColor=#1A1A1A;strokeWidth=3;dashed=1;strokeColor=#999900;" parent="1" vertex="1">
                    <mxGeometry x="-1140" y="210" width="600" height="480" as="geometry"/>
                </mxCell>
                <mxCell id="69" style="edgeStyle=orthogonalEdgeStyle;rounded=0;orthogonalLoop=1;jettySize=auto;html=1;entryX=0.5;entryY=0;entryDx=0;entryDy=0;" parent="1" source="11" target="33" edge="1">
                    <mxGeometry relative="1" as="geometry"/>
                </mxCell>
                <mxCell id="70" style="edgeStyle=orthogonalEdgeStyle;rounded=0;orthogonalLoop=1;jettySize=auto;html=1;entryX=1;entryY=0.5;entryDx=0;entryDy=0;" parent="1" source="11" target="50" edge="1">
                    <mxGeometry relative="1" as="geometry">
                        <Array as="points">
                            <mxPoint x="-740" y="330"/>
                            <mxPoint x="-740" y="305"/>
                        </Array>
                    </mxGeometry>
                </mxCell>
                <mxCell id="11" value="persons" style="swimlane;strokeColor=#006EAF;fillColor=#1ba1e2;fontColor=#ffffff;startSize=30;" parent="1" vertex="1">
                    <mxGeometry x="-710" y="240" width="140" height="170" as="geometry">
                        <mxRectangle x="230" y="110" width="80" height="30" as="alternateBounds"/>
                    </mxGeometry>
                </mxCell>
                <mxCell id="12" value="id&#10;group_id&#10;code&#10;company&#10;name&#10;cpf_cnpj&#10;rg_ie&#10;created_at&#10;updated_at" style="text;strokeColor=none;align=left;verticalAlign=middle;spacingLeft=4;spacingRight=4;overflow=hidden;rotatable=0;points=[[0,0.5],[1,0.5]];portConstraint=eastwest;fontColor=#1A1A1A;fillColor=#FFFFFF;" parent="11" vertex="1">
                    <mxGeometry y="30" width="140" height="140" as="geometry"/>
                </mxCell>
                <mxCell id="68" style="edgeStyle=orthogonalEdgeStyle;rounded=0;orthogonalLoop=1;jettySize=auto;html=1;entryX=0.5;entryY=1;entryDx=0;entryDy=0;" parent="1" source="31" target="33" edge="1">
                    <mxGeometry relative="1" as="geometry"/>
                </mxCell>
                <mxCell id="31" value="person_types" style="swimlane;strokeColor=#6F0000;fillColor=#a20025;fontColor=#ffffff;startSize=30;" parent="1" vertex="1">
                    <mxGeometry x="-710" y="550" width="140" height="110" as="geometry"/>
                </mxCell>
                <mxCell id="32" value="id&#10;name&#10;description&#10;created_at&#10;updated_at" style="text;strokeColor=none;align=left;verticalAlign=middle;spacingLeft=4;spacingRight=4;overflow=hidden;rotatable=0;points=[[0,0.5],[1,0.5]];portConstraint=eastwest;fontColor=#1A1A1A;fillColor=#FFFFFF;" parent="31" vertex="1">
                    <mxGeometry y="30" width="140" height="80" as="geometry"/>
                </mxCell>
                <mxCell id="33" value="person_type" style="swimlane;strokeColor=#3700CC;fillColor=#6a00ff;fontColor=#ffffff;startSize=30;" parent="1" vertex="1">
                    <mxGeometry x="-710" y="450" width="140" height="70" as="geometry"/>
                </mxCell>
                <mxCell id="34" value="person_id&#10;person_type_id" style="text;strokeColor=none;align=left;verticalAlign=middle;spacingLeft=4;spacingRight=4;overflow=hidden;rotatable=0;points=[[0,0.5],[1,0.5]];portConstraint=eastwest;fontColor=#1A1A1A;fillColor=#FFFFFF;" parent="33" vertex="1">
                    <mxGeometry y="30" width="140" height="40" as="geometry"/>
                </mxCell>
                <mxCell id="41" value="Persons" style="text;html=1;strokeColor=none;fillColor=none;align=center;verticalAlign=middle;whiteSpace=wrap;rounded=0;dashed=1;fontSize=50;fontColor=#999900;" parent="1" vertex="1">
                    <mxGeometry x="-927.5" y="150" width="215" height="60" as="geometry"/>
                </mxCell>
                <mxCell id="42" value="person_addresses" style="swimlane;strokeColor=#C73500;fillColor=#fa6800;fontColor=#ffffff;startSize=30;" parent="1" vertex="1">
                    <mxGeometry x="-890" y="440" width="140" height="240" as="geometry">
                        <mxRectangle x="230" y="110" width="80" height="30" as="alternateBounds"/>
                    </mxGeometry>
                </mxCell>
                <mxCell id="43" value="id&#10;person_id&#10;address_type_id&#10;code&#10;postcode&#10;address&#10;number&#10;complement&#10;district&#10;city&#10;state&#10;country&#10;created_at&#10;updated_at" style="text;strokeColor=none;align=left;verticalAlign=middle;spacingLeft=4;spacingRight=4;overflow=hidden;rotatable=0;points=[[0,0.5],[1,0.5]];portConstraint=eastwest;fontColor=#1A1A1A;fillColor=#FFFFFF;" parent="42" vertex="1">
                    <mxGeometry y="30" width="140" height="210" as="geometry"/>
                </mxCell>
                <mxCell id="44" value="address_types" style="swimlane;strokeColor=#314354;fillColor=#647687;fontColor=#ffffff;startSize=30;" parent="1" vertex="1">
                    <mxGeometry x="-1070" y="450" width="140" height="110" as="geometry">
                        <mxRectangle x="230" y="110" width="80" height="30" as="alternateBounds"/>
                    </mxGeometry>
                </mxCell>
                <mxCell id="45" value="id&#10;name&#10;description&#10;created_at&#10;updated_at" style="text;strokeColor=none;align=left;verticalAlign=middle;spacingLeft=4;spacingRight=4;overflow=hidden;rotatable=0;points=[[0,0.5],[1,0.5]];portConstraint=eastwest;fontColor=#1A1A1A;fillColor=#FFFFFF;" parent="44" vertex="1">
                    <mxGeometry y="30" width="140" height="80" as="geometry"/>
                </mxCell>
                <mxCell id="48" style="edgeStyle=orthogonalEdgeStyle;rounded=0;orthogonalLoop=1;jettySize=auto;html=1;fontSize=30;fontColor=#FFFFFF;" parent="1" source="45" edge="1">
                    <mxGeometry relative="1" as="geometry">
                        <mxPoint x="-889" y="517" as="targetPoint"/>
                        <Array as="points">
                            <mxPoint x="-910" y="520"/>
                            <mxPoint x="-910" y="517"/>
                        </Array>
                    </mxGeometry>
                </mxCell>
                <mxCell id="49" style="edgeStyle=orthogonalEdgeStyle;rounded=0;orthogonalLoop=1;jettySize=auto;html=1;entryX=0.5;entryY=0;entryDx=0;entryDy=0;fontSize=30;fontColor=#FFFFFF;" parent="1" source="12" target="42" edge="1">
                    <mxGeometry relative="1" as="geometry">
                        <Array as="points">
                            <mxPoint x="-740" y="350"/>
                            <mxPoint x="-740" y="400"/>
                            <mxPoint x="-820" y="400"/>
                        </Array>
                    </mxGeometry>
                </mxCell>
                <mxCell id="50" value="person_contacts" style="swimlane;strokeColor=#432D57;fillColor=#76608a;fontColor=#ffffff;startSize=30;" parent="1" vertex="1">
                    <mxGeometry x="-910" y="240" width="140" height="130" as="geometry">
                        <mxRectangle x="230" y="110" width="80" height="30" as="alternateBounds"/>
                    </mxGeometry>
                </mxCell>
                <mxCell id="51" value="id&#10;person_id&#10;contact_type_id&#10;value&#10;created_at&#10;updated_at" style="text;strokeColor=none;align=left;verticalAlign=middle;spacingLeft=4;spacingRight=4;overflow=hidden;rotatable=0;points=[[0,0.5],[1,0.5]];portConstraint=eastwest;fontColor=#1A1A1A;fillColor=#FFFFFF;" parent="50" vertex="1">
                    <mxGeometry y="30" width="140" height="100" as="geometry"/>
                </mxCell>
                <mxCell id="55" value="contact_types" style="swimlane;strokeColor=#6D1F00;fillColor=#a0522d;fontColor=#ffffff;startSize=30;" parent="1" vertex="1">
                    <mxGeometry x="-1107.5" y="240" width="140" height="110" as="geometry">
                        <mxRectangle x="230" y="110" width="80" height="30" as="alternateBounds"/>
                    </mxGeometry>
                </mxCell>
                <mxCell id="56" value="id&#10;name&#10;description&#10;created_at&#10;updated_at" style="text;strokeColor=none;align=left;verticalAlign=middle;spacingLeft=4;spacingRight=4;overflow=hidden;rotatable=0;points=[[0,0.5],[1,0.5]];portConstraint=eastwest;fontColor=#1A1A1A;fillColor=#FFFFFF;" parent="55" vertex="1">
                    <mxGeometry y="30" width="140" height="80" as="geometry"/>
                </mxCell>
                <mxCell id="57" style="edgeStyle=orthogonalEdgeStyle;rounded=0;orthogonalLoop=1;jettySize=auto;html=1;fontSize=30;fontColor=#FFFFFF;" parent="1" source="56" target="51" edge="1">
                    <mxGeometry relative="1" as="geometry">
                        <Array as="points">
                            <mxPoint x="-970" y="300"/>
                            <mxPoint x="-970" y="300"/>
                        </Array>
                    </mxGeometry>
                </mxCell>
                <mxCell id="82" style="edgeStyle=orthogonalEdgeStyle;rounded=0;orthogonalLoop=1;jettySize=auto;html=1;" parent="1" source="73" target="75" edge="1">
                    <mxGeometry relative="1" as="geometry"/>
                </mxCell>
                <mxCell id="73" value="sections" style="swimlane;strokeColor=#3700CC;fillColor=#6a00ff;fontColor=#ffffff;startSize=30;" parent="1" vertex="1">
                    <mxGeometry x="-55" y="240" width="140" height="120" as="geometry">
                        <mxRectangle x="230" y="110" width="80" height="30" as="alternateBounds"/>
                    </mxGeometry>
                </mxCell>
                <mxCell id="74" value="id&#10;name&#10;description&#10;created_at&#10;updated_at" style="text;strokeColor=none;align=left;verticalAlign=middle;spacingLeft=4;spacingRight=4;overflow=hidden;rotatable=0;points=[[0,0.5],[1,0.5]];portConstraint=eastwest;fontColor=#1A1A1A;fillColor=#FFFFFF;" parent="73" vertex="1">
                    <mxGeometry y="30" width="140" height="90" as="geometry"/>
                </mxCell>
                <mxCell id="83" style="edgeStyle=orthogonalEdgeStyle;rounded=0;orthogonalLoop=1;jettySize=auto;html=1;entryX=1.015;entryY=0.06;entryDx=0;entryDy=0;entryPerimeter=0;" parent="1" source="75" target="81" edge="1">
                    <mxGeometry relative="1" as="geometry">
                        <Array as="points">
                            <mxPoint x="-75" y="502"/>
                            <mxPoint x="-75" y="502"/>
                        </Array>
                    </mxGeometry>
                </mxCell>
                <mxCell id="75" value="permissions" style="swimlane;strokeColor=#005700;fillColor=#008a00;fontColor=#ffffff;startSize=30;" parent="1" vertex="1">
                    <mxGeometry x="-55" y="420" width="140" height="140" as="geometry">
                        <mxRectangle x="-10" y="435" width="80" height="30" as="alternateBounds"/>
                    </mxGeometry>
                </mxCell>
                <mxCell id="76" value="id&#10;section_id&#10;name&#10;action&#10;description&#10;created_at&#10;updated_at" style="text;strokeColor=none;align=left;verticalAlign=middle;spacingLeft=4;spacingRight=4;overflow=hidden;rotatable=0;points=[[0,0.5],[1,0.5]];portConstraint=eastwest;fontColor=#1A1A1A;fillColor=#FFFFFF;" parent="75" vertex="1">
                    <mxGeometry y="30" width="140" height="110" as="geometry"/>
                </mxCell>
                <mxCell id="84" style="edgeStyle=orthogonalEdgeStyle;rounded=0;orthogonalLoop=1;jettySize=auto;html=1;entryX=0.5;entryY=0;entryDx=0;entryDy=0;" parent="1" source="78" target="80" edge="1">
                    <mxGeometry relative="1" as="geometry">
                        <Array as="points">
                            <mxPoint x="-175" y="390"/>
                            <mxPoint x="-175" y="390"/>
                        </Array>
                    </mxGeometry>
                </mxCell>
                <mxCell id="90" style="edgeStyle=orthogonalEdgeStyle;rounded=0;orthogonalLoop=1;jettySize=auto;html=1;entryX=0.75;entryY=0;entryDx=0;entryDy=0;" parent="1" source="78" target="85" edge="1">
                    <mxGeometry relative="1" as="geometry">
                        <Array as="points">
                            <mxPoint x="-215" y="430"/>
                            <mxPoint x="-310" y="430"/>
                        </Array>
                    </mxGeometry>
                </mxCell>
                <mxCell id="78" value="roles" style="swimlane;strokeColor=#6F0000;fillColor=#a20025;fontColor=#ffffff;startSize=30;" parent="1" vertex="1">
                    <mxGeometry x="-245" y="240" width="140" height="120" as="geometry">
                        <mxRectangle x="230" y="110" width="80" height="30" as="alternateBounds"/>
                    </mxGeometry>
                </mxCell>
                <mxCell id="79" value="id&#10;name&#10;description&#10;created_at&#10;updated_at" style="text;strokeColor=none;align=left;verticalAlign=middle;spacingLeft=4;spacingRight=4;overflow=hidden;rotatable=0;points=[[0,0.5],[1,0.5]];portConstraint=eastwest;fontColor=#1A1A1A;fillColor=#FFFFFF;" parent="78" vertex="1">
                    <mxGeometry y="30" width="140" height="90" as="geometry"/>
                </mxCell>
                <mxCell id="80" value="role_permission" style="swimlane;strokeColor=#A50040;fillColor=#d80073;fontColor=#ffffff;startSize=30;" parent="1" vertex="1">
                    <mxGeometry x="-245" y="470" width="140" height="70" as="geometry"/>
                </mxCell>
                <mxCell id="81" value="role_id&#10;permission_id" style="text;strokeColor=none;align=left;verticalAlign=middle;spacingLeft=4;spacingRight=4;overflow=hidden;rotatable=0;points=[[0,0.5],[1,0.5]];portConstraint=eastwest;fontColor=#1A1A1A;fillColor=#FFFFFF;" parent="80" vertex="1">
                    <mxGeometry y="30" width="140" height="40" as="geometry"/>
                </mxCell>
                <mxCell id="85" value="user_role" style="swimlane;strokeColor=#C73500;fillColor=#fa6800;fontColor=#ffffff;startSize=30;" parent="1" vertex="1">
                    <mxGeometry x="-415" y="470" width="140" height="70" as="geometry"/>
                </mxCell>
                <mxCell id="86" value="user_id&#10;role_id" style="text;strokeColor=none;align=left;verticalAlign=middle;spacingLeft=4;spacingRight=4;overflow=hidden;rotatable=0;points=[[0,0.5],[1,0.5]];portConstraint=eastwest;fontColor=#1A1A1A;fillColor=#FFFFFF;" parent="85" vertex="1">
                    <mxGeometry y="30" width="140" height="40" as="geometry"/>
                </mxCell>
                <mxCell id="92" value="Sellers" style="text;html=1;strokeColor=none;fillColor=none;align=center;verticalAlign=middle;whiteSpace=wrap;rounded=0;dashed=1;fontSize=50;fontColor=#FF0000;" parent="1" vertex="1">
                    <mxGeometry x="-911.88" y="720" width="183.75" height="60" as="geometry"/>
                </mxCell>
                <mxCell id="93" value="seller_customer" style="swimlane;strokeColor=#6D1F00;fillColor=#a0522d;fontColor=#ffffff;startSize=30;" parent="1" vertex="1">
                    <mxGeometry x="-1085" y="800" width="150" height="70" as="geometry"/>
                </mxCell>
                <mxCell id="94" value="seller_id  (person_id)&#10;customer_id  (person_id)" style="text;strokeColor=none;align=left;verticalAlign=middle;spacingLeft=4;spacingRight=4;overflow=hidden;rotatable=0;points=[[0,0.5],[1,0.5]];portConstraint=eastwest;fontColor=#1A1A1A;fillColor=#FFFFFF;" parent="93" vertex="1">
                    <mxGeometry y="30" width="150" height="40" as="geometry"/>
                </mxCell>
                <mxCell id="95" value="seller_company" style="swimlane;strokeColor=#C73500;fillColor=#fa6800;fontColor=#ffffff;startSize=30;" parent="1" vertex="1">
                    <mxGeometry x="-915" y="800" width="150" height="70" as="geometry"/>
                </mxCell>
                <mxCell id="96" value="seller_id  (person_id)&#10;company_id  (person_id)" style="text;strokeColor=none;align=left;verticalAlign=middle;spacingLeft=4;spacingRight=4;overflow=hidden;rotatable=0;points=[[0,0.5],[1,0.5]];portConstraint=eastwest;fontColor=#1A1A1A;fillColor=#FFFFFF;" parent="95" vertex="1">
                    <mxGeometry y="30" width="150" height="40" as="geometry"/>
                </mxCell>
                <mxCell id="97" value="seller_uids" style="swimlane;strokeColor=#B20000;fillColor=#e51400;fontColor=#ffffff;startSize=30;" parent="1" vertex="1">
                    <mxGeometry x="-745" y="800" width="150" height="130" as="geometry"/>
                </mxCell>
                <mxCell id="98" value="id&#10;seller_id  (person_id)&#10;uid&#10;active&#10;created_at&#10;updated_at" style="text;strokeColor=none;align=left;verticalAlign=middle;spacingLeft=4;spacingRight=4;overflow=hidden;rotatable=0;points=[[0,0.5],[1,0.5]];portConstraint=eastwest;fontColor=#1A1A1A;fillColor=#FFFFFF;" parent="97" vertex="1">
                    <mxGeometry y="30" width="150" height="100" as="geometry"/>
                </mxCell>
                <mxCell id="102" value="commercial_routes" style="swimlane;strokeColor=#314354;fillColor=#647687;fontColor=#ffffff;startSize=30;" parent="1" vertex="1">
                    <mxGeometry x="-450" y="740" width="150" height="200" as="geometry"/>
                </mxCell>
                <mxCell id="103" value="id&#10;group_id&#10;seller_id  (person_id)&#10;company_id  (person_id)&#10;code&#10;name&#10;started_at&#10;ended_at&#10;active&#10;created_at&#10;updated_at" style="text;strokeColor=none;align=left;verticalAlign=middle;spacingLeft=4;spacingRight=4;overflow=hidden;rotatable=0;points=[[0,0.5],[1,0.5]];portConstraint=eastwest;fontColor=#1A1A1A;fillColor=#FFFFFF;" parent="102" vertex="1">
                    <mxGeometry y="30" width="150" height="170" as="geometry"/>
                </mxCell>
                <mxCell id="105" value="Commercials" style="text;html=1;strokeColor=none;fillColor=none;align=center;verticalAlign=middle;whiteSpace=wrap;rounded=0;dashed=1;fontSize=50;fontColor=#7F00FF;" parent="1" vertex="1">
                    <mxGeometry x="-283.43" y="650" width="326.87" height="60" as="geometry"/>
                </mxCell>
                <mxCell id="124" style="edgeStyle=orthogonalEdgeStyle;rounded=0;orthogonalLoop=1;jettySize=auto;html=1;entryX=0.548;entryY=-0.011;entryDx=0;entryDy=0;entryPerimeter=0;fontSize=15;fontColor=#7F00FF;" parent="1" source="108" target="112" edge="1">
                    <mxGeometry relative="1" as="geometry"/>
                </mxCell>
                <mxCell id="108" value="commercial_routes_customers" style="swimlane;strokeColor=#B20000;fillColor=#e51400;fontColor=#ffffff;startSize=30;" parent="1" vertex="1">
                    <mxGeometry x="-230" y="730" width="220" height="170" as="geometry"/>
                </mxCell>
                <mxCell id="109" value="id&#10;commercial_route_id&#10;customer_id   (person_id)&#10;address_id&#10;code&#10;sequency&#10;active&#10;created_at&#10;updated_at" style="text;strokeColor=none;align=left;verticalAlign=middle;spacingLeft=4;spacingRight=4;overflow=hidden;rotatable=0;points=[[0,0.5],[1,0.5]];portConstraint=eastwest;fontColor=#1A1A1A;fillColor=#FFFFFF;" parent="108" vertex="1">
                    <mxGeometry y="30" width="220" height="140" as="geometry"/>
                </mxCell>
                <mxCell id="110" style="edgeStyle=orthogonalEdgeStyle;rounded=0;orthogonalLoop=1;jettySize=auto;html=1;fontSize=15;fontColor=#7F00FF;" parent="1" source="103" target="109" edge="1">
                    <mxGeometry relative="1" as="geometry">
                        <Array as="points">
                            <mxPoint x="-270" y="825"/>
                            <mxPoint x="-270" y="825"/>
                        </Array>
                    </mxGeometry>
                </mxCell>
                <mxCell id="111" value="person_id" style="text;html=1;strokeColor=none;fillColor=none;align=center;verticalAlign=middle;whiteSpace=wrap;rounded=0;rotation=0;fontColor=#FFFFFF;fontSize=15;" parent="1" vertex="1">
                    <mxGeometry x="-610" y="720" width="97.5" height="20" as="geometry"/>
                </mxCell>
                <mxCell id="112" value="commercial_routes_dailies" style="swimlane;strokeColor=#432D57;fillColor=#76608a;fontColor=#ffffff;startSize=30;" parent="1" vertex="1">
                    <mxGeometry x="-230" y="924" width="200" height="210" as="geometry"/>
                </mxCell>
                <mxCell id="113" value="id&#10;code&#10;commercial_route_id&#10;customer_id   (person_id)&#10;address_id&#10;justification_id&#10;justified_at&#10;visited_at&#10;obs&#10;sequency&#10;created_at&#10;updated_at" style="text;strokeColor=none;align=left;verticalAlign=middle;spacingLeft=4;spacingRight=4;overflow=hidden;rotatable=0;points=[[0,0.5],[1,0.5]];portConstraint=eastwest;fontColor=#1A1A1A;fillColor=#FFFFFF;" parent="112" vertex="1">
                    <mxGeometry y="30" width="200" height="180" as="geometry"/>
                </mxCell>
                <mxCell id="116" value="commercial_routes_daily_checks" style="swimlane;strokeColor=#C73500;fillColor=#fa6800;fontColor=#ffffff;startSize=30;" parent="1" vertex="1">
                    <mxGeometry x="50" y="970" width="240" height="130" as="geometry"/>
                </mxCell>
                <mxCell id="117" value="id&#10;commercial_route_daily_id&#10;started_at&#10;ended_at&#10;created_at&#10;updated_at" style="text;strokeColor=none;align=left;verticalAlign=middle;spacingLeft=4;spacingRight=4;overflow=hidden;rotatable=0;points=[[0,0.5],[1,0.5]];portConstraint=eastwest;fontColor=#1A1A1A;fillColor=#FFFFFF;" parent="116" vertex="1">
                    <mxGeometry y="30" width="240" height="100" as="geometry"/>
                </mxCell>
                <mxCell id="118" style="edgeStyle=orthogonalEdgeStyle;rounded=0;orthogonalLoop=1;jettySize=auto;html=1;fontSize=15;fontColor=#7F00FF;" parent="1" source="113" target="117" edge="1">
                    <mxGeometry relative="1" as="geometry">
                        <Array as="points">
                            <mxPoint x="10" y="1050"/>
                            <mxPoint x="10" y="1050"/>
                        </Array>
                    </mxGeometry>
                </mxCell>
                <mxCell id="123" style="edgeStyle=orthogonalEdgeStyle;rounded=0;orthogonalLoop=1;jettySize=auto;html=1;fontSize=15;fontColor=#7F00FF;" parent="1" source="121" edge="1">
                    <mxGeometry relative="1" as="geometry">
                        <mxPoint x="-30" y="990" as="targetPoint"/>
                        <Array as="points">
                            <mxPoint x="20" y="790"/>
                            <mxPoint x="20" y="990"/>
                        </Array>
                    </mxGeometry>
                </mxCell>
                <mxCell id="121" value="justifications" style="swimlane;strokeColor=#314354;fontColor=#ffffff;startSize=30;fillColor=#6600CC;" parent="1" vertex="1">
                    <mxGeometry x="80" y="740" width="150" height="130" as="geometry"/>
                </mxCell>
                <mxCell id="122" value="id&#10;group_id&#10;code&#10;description&#10;created_at&#10;updated_at" style="text;strokeColor=none;align=left;verticalAlign=middle;spacingLeft=4;spacingRight=4;overflow=hidden;rotatable=0;points=[[0,0.5],[1,0.5]];portConstraint=eastwest;fontColor=#1A1A1A;fillColor=#FFFFFF;" parent="121" vertex="1">
                    <mxGeometry y="30" width="150" height="100" as="geometry"/>
                </mxCell>
                <mxCell id="125" style="edgeStyle=orthogonalEdgeStyle;rounded=0;orthogonalLoop=1;jettySize=auto;html=1;entryX=0.482;entryY=1.005;entryDx=0;entryDy=0;entryPerimeter=0;fontSize=15;fontColor=#7F00FF;" parent="1" source="113" target="103" edge="1">
                    <mxGeometry relative="1" as="geometry"/>
                </mxCell>
                <mxCell id="126" value="started_at&lt;br&gt;ended_at" style="text;html=1;strokeColor=none;fillColor=none;align=center;verticalAlign=middle;whiteSpace=wrap;rounded=0;fontSize=15;fontColor=#FFFFFF;" parent="1" vertex="1">
                    <mxGeometry x="-360" y="980" width="100" height="56" as="geometry"/>
                </mxCell>
                <mxCell id="136" style="edgeStyle=orthogonalEdgeStyle;rounded=0;orthogonalLoop=1;jettySize=auto;html=1;fontSize=15;fontColor=#00FF00;" parent="1" source="129" target="135" edge="1">
                    <mxGeometry relative="1" as="geometry">
                        <Array as="points">
                            <mxPoint x="-250" y="1365"/>
                            <mxPoint x="-250" y="1365"/>
                        </Array>
                    </mxGeometry>
                </mxCell>
                <mxCell id="129" value="orders" style="swimlane;strokeColor=#B20000;fontColor=#ffffff;startSize=30;fillColor=#e51400;" parent="1" vertex="1">
                    <mxGeometry x="-450" y="1270" width="180" height="280" as="geometry"/>
                </mxCell>
                <mxCell id="130" value="id&#10;order_id&#10;type&#10;commercial_route_id&#10;commercial_route_daily_id&#10;customer_id&#10;payment_id&#10;installment_id&#10;price_id&#10;obs&#10;financy&#10;latitude&#10;longitude&#10;total&#10;generated_at&#10;created_at&#10;updated_at" style="text;strokeColor=none;align=left;verticalAlign=middle;spacingLeft=4;spacingRight=4;overflow=hidden;rotatable=0;points=[[0,0.5],[1,0.5]];portConstraint=eastwest;fontColor=#1A1A1A;fillColor=#FFFFFF;" parent="129" vertex="1">
                    <mxGeometry y="30" width="180" height="250" as="geometry"/>
                </mxCell>
                <mxCell id="132" value="Orders" style="text;html=1;strokeColor=none;fillColor=none;align=center;verticalAlign=middle;whiteSpace=wrap;rounded=0;dashed=1;fontSize=50;fontColor=#00FF00;" parent="1" vertex="1">
                    <mxGeometry x="-288.42999999999995" y="1180" width="326.87" height="60" as="geometry"/>
                </mxCell>
                <mxCell id="134" value="orders_items" style="swimlane;strokeColor=#C73500;fontColor=#ffffff;startSize=30;fillColor=#fa6800;" parent="1" vertex="1">
                    <mxGeometry x="-215" y="1270" width="180" height="190" as="geometry"/>
                </mxCell>
                <mxCell id="135" value="id&#10;code&#10;order_id&#10;exchange_id&#10;product_id&#10;qtd&#10;price&#10;original_price&#10;created_at&#10;updated_at" style="text;strokeColor=none;align=left;verticalAlign=middle;spacingLeft=4;spacingRight=4;overflow=hidden;rotatable=0;points=[[0,0.5],[1,0.5]];portConstraint=eastwest;fontColor=#1A1A1A;fillColor=#FFFFFF;" parent="134" vertex="1">
                    <mxGeometry y="30" width="180" height="160" as="geometry"/>
                </mxCell>
                <mxCell id="142" style="edgeStyle=orthogonalEdgeStyle;rounded=0;orthogonalLoop=1;jettySize=auto;html=1;entryX=1;entryY=0.5;entryDx=0;entryDy=0;fontSize=15;fontColor=#00FF00;" parent="1" source="138" target="140" edge="1">
                    <mxGeometry relative="1" as="geometry"/>
                </mxCell>
                <mxCell id="138" value="categories" style="swimlane;strokeColor=#3700CC;fontColor=#ffffff;startSize=30;fillColor=#6a00ff;" parent="1" vertex="1">
                    <mxGeometry x="-780.01" y="1350" width="180" height="140" as="geometry"/>
                </mxCell>
                <mxCell id="139" value="id&#10;group_id&#10;category_id&#10;code&#10;name&#10;created_at&#10;updated_at" style="text;strokeColor=none;align=left;verticalAlign=middle;spacingLeft=4;spacingRight=4;overflow=hidden;rotatable=0;points=[[0,0.5],[1,0.5]];portConstraint=eastwest;fontColor=#1A1A1A;fillColor=#FFFFFF;" parent="138" vertex="1">
                    <mxGeometry y="30" width="180" height="110" as="geometry"/>
                </mxCell>
                <mxCell id="140" value="products" style="swimlane;strokeColor=#432D57;fontColor=#ffffff;startSize=30;fillColor=#76608a;" parent="1" vertex="1">
                    <mxGeometry x="-1007" y="1350" width="180" height="190" as="geometry"/>
                </mxCell>
                <mxCell id="141" value="id&#10;category_id&#10;code&#10;barcode&#10;name&#10;tag&#10;stock&#10;discount_limit&#10;status&#10;created_at&#10;updated_at" style="text;strokeColor=none;align=left;verticalAlign=middle;spacingLeft=4;spacingRight=4;overflow=hidden;rotatable=0;points=[[0,0.5],[1,0.5]];portConstraint=eastwest;fontColor=#1A1A1A;fillColor=#FFFFFF;" parent="140" vertex="1">
                    <mxGeometry y="30" width="180" height="160" as="geometry"/>
                </mxCell>
                <mxCell id="156" style="edgeStyle=orthogonalEdgeStyle;rounded=0;orthogonalLoop=1;jettySize=auto;html=1;fontSize=15;fontColor=#CC00CC;" parent="1" source="147" edge="1">
                    <mxGeometry relative="1" as="geometry">
                        <mxPoint x="-650" y="1698" as="targetPoint"/>
                        <Array as="points">
                            <mxPoint x="-600" y="1698"/>
                        </Array>
                    </mxGeometry>
                </mxCell>
                <mxCell id="162" style="edgeStyle=orthogonalEdgeStyle;rounded=0;orthogonalLoop=1;jettySize=auto;html=1;entryX=1;entryY=0.5;entryDx=0;entryDy=0;fontSize=15;fontColor=#CC00CC;" parent="1" source="147" target="157" edge="1">
                    <mxGeometry relative="1" as="geometry">
                        <Array as="points">
                            <mxPoint x="-802" y="1845"/>
                            <mxPoint x="-802" y="1790"/>
                        </Array>
                    </mxGeometry>
                </mxCell>
                <mxCell id="164" style="edgeStyle=orthogonalEdgeStyle;rounded=0;orthogonalLoop=1;jettySize=auto;html=1;fontSize=15;fontColor=#CC00CC;" parent="1" source="147" target="160" edge="1">
                    <mxGeometry relative="1" as="geometry">
                        <Array as="points">
                            <mxPoint x="-802" y="1870"/>
                            <mxPoint x="-802" y="1905"/>
                        </Array>
                    </mxGeometry>
                </mxCell>
                <mxCell id="147" value="prices" style="swimlane;strokeColor=#A50040;fontColor=#ffffff;startSize=30;fillColor=#d80073;" parent="1" vertex="1">
                    <mxGeometry x="-755" y="1805" width="180" height="130" as="geometry"/>
                </mxCell>
                <mxCell id="148" value="id&#10;group_id&#10;code&#10;name&#10;created_at&#10;updated_at" style="text;strokeColor=none;align=left;verticalAlign=middle;spacingLeft=4;spacingRight=4;overflow=hidden;rotatable=0;points=[[0,0.5],[1,0.5]];portConstraint=eastwest;fontColor=#1A1A1A;fillColor=#FFFFFF;" parent="147" vertex="1">
                    <mxGeometry y="30" width="180" height="100" as="geometry"/>
                </mxCell>
                <mxCell id="151" value="product_price" style="swimlane;strokeColor=#C73500;fillColor=#fa6800;fontColor=#ffffff;startSize=30;" parent="1" vertex="1">
                    <mxGeometry x="-800" y="1655" width="150" height="110" as="geometry"/>
                </mxCell>
                <mxCell id="152" value="product_id&#10;price_id&#10;qtd_start&#10;qtd_ed&#10;price" style="text;strokeColor=none;align=left;verticalAlign=middle;spacingLeft=4;spacingRight=4;overflow=hidden;rotatable=0;points=[[0,0.5],[1,0.5]];portConstraint=eastwest;fontColor=#1A1A1A;fillColor=#FFFFFF;" parent="151" vertex="1">
                    <mxGeometry y="30" width="150" height="80" as="geometry"/>
                </mxCell>
                <mxCell id="157" value="customer_price" style="swimlane;strokeColor=#001DBC;fillColor=#0050ef;fontColor=#ffffff;startSize=30;" parent="1" vertex="1">
                    <mxGeometry x="-1020" y="1755" width="170" height="70" as="geometry"/>
                </mxCell>
                <mxCell id="158" value="customer_id  (person_id)&#10;price_id" style="text;strokeColor=none;align=left;verticalAlign=middle;spacingLeft=4;spacingRight=4;overflow=hidden;rotatable=0;points=[[0,0.5],[1,0.5]];portConstraint=eastwest;fontColor=#1A1A1A;fillColor=#FFFFFF;" parent="157" vertex="1">
                    <mxGeometry y="30" width="170" height="40" as="geometry"/>
                </mxCell>
                <mxCell id="159" value="company_price" style="swimlane;strokeColor=#006EAF;fillColor=#1ba1e2;fontColor=#ffffff;startSize=30;" parent="1" vertex="1">
                    <mxGeometry x="-1020" y="1865" width="170" height="70" as="geometry"/>
                </mxCell>
                <mxCell id="160" value="company_id  (person_id)&#10;price_id" style="text;strokeColor=none;align=left;verticalAlign=middle;spacingLeft=4;spacingRight=4;overflow=hidden;rotatable=0;points=[[0,0.5],[1,0.5]];portConstraint=eastwest;fontColor=#1A1A1A;fillColor=#FFFFFF;" parent="159" vertex="1">
                    <mxGeometry y="30" width="170" height="40" as="geometry"/>
                </mxCell>
                <mxCell id="167" value="Prices" style="text;html=1;strokeColor=none;fillColor=none;align=center;verticalAlign=middle;whiteSpace=wrap;rounded=0;dashed=1;fontSize=50;fontColor=#FFCC99;" parent="1" vertex="1">
                    <mxGeometry x="-968.4399999999999" y="1565" width="326.87" height="60" as="geometry"/>
                </mxCell>
                <mxCell id="183" style="edgeStyle=orthogonalEdgeStyle;rounded=0;orthogonalLoop=1;jettySize=auto;html=1;fontSize=15;fontColor=#3399FF;" parent="1" source="170" target="180" edge="1">
                    <mxGeometry relative="1" as="geometry">
                        <Array as="points">
                            <mxPoint x="-30" y="1860"/>
                            <mxPoint x="-30" y="1860"/>
                        </Array>
                    </mxGeometry>
                </mxCell>
                <mxCell id="170" value="payments" style="swimlane;fontColor=#ffffff;startSize=30;fillColor=#007FFF;strokeColor=#0000FF;" parent="1" vertex="1">
                    <mxGeometry x="-120" y="1670" width="170" height="170" as="geometry"/>
                </mxCell>
                <mxCell id="171" value="id&#10;group_id&#10;code&#10;name&#10;min&#10;default&#10;active&#10;created_at&#10;updated_at" style="text;strokeColor=none;align=left;verticalAlign=middle;spacingLeft=4;spacingRight=4;overflow=hidden;rotatable=0;points=[[0,0.5],[1,0.5]];portConstraint=eastwest;fontColor=#1A1A1A;fillColor=#FFFFFF;" parent="170" vertex="1">
                    <mxGeometry y="30" width="170" height="140" as="geometry"/>
                </mxCell>
                <mxCell id="223" style="edgeStyle=orthogonalEdgeStyle;rounded=0;orthogonalLoop=1;jettySize=auto;html=1;entryX=0.75;entryY=0;entryDx=0;entryDy=0;" parent="1" source="172" target="178" edge="1">
                    <mxGeometry relative="1" as="geometry">
                        <Array as="points">
                            <mxPoint x="-287" y="1850"/>
                            <mxPoint x="-287" y="1850"/>
                        </Array>
                    </mxGeometry>
                </mxCell>
                <mxCell id="225" style="edgeStyle=orthogonalEdgeStyle;rounded=0;orthogonalLoop=1;jettySize=auto;html=1;" parent="1" source="172" edge="1">
                    <mxGeometry relative="1" as="geometry">
                        <mxPoint x="-220" y="1957" as="targetPoint"/>
                        <Array as="points">
                            <mxPoint x="-220" y="1957"/>
                        </Array>
                    </mxGeometry>
                </mxCell>
                <mxCell id="172" value="installments" style="swimlane;fontColor=#ffffff;startSize=30;fillColor=#60a917;strokeColor=#2D7600;" parent="1" vertex="1">
                    <mxGeometry x="-350" y="1669" width="170" height="170" as="geometry"/>
                </mxCell>
                <mxCell id="173" value="id&#10;group_id&#10;code&#10;name&#10;qtd&#10;default&#10;incash&#10;created_at&#10;updated_at" style="text;strokeColor=none;align=left;verticalAlign=middle;spacingLeft=4;spacingRight=4;overflow=hidden;rotatable=0;points=[[0,0.5],[1,0.5]];portConstraint=eastwest;fontColor=#1A1A1A;fillColor=#FFFFFF;" parent="172" vertex="1">
                    <mxGeometry y="30" width="170" height="140" as="geometry"/>
                </mxCell>
                <mxCell id="175" value="Payments" style="text;html=1;strokeColor=none;fillColor=none;align=center;verticalAlign=middle;whiteSpace=wrap;rounded=0;dashed=1;fontSize=50;fontColor=#3399FF;" parent="1" vertex="1">
                    <mxGeometry x="-356.8699999999999" y="1590" width="326.87" height="60" as="geometry"/>
                </mxCell>
                <mxCell id="178" value="company_installment" style="swimlane;strokeColor=#A50040;fillColor=#d80073;fontColor=#ffffff;startSize=30;" parent="1" vertex="1">
                    <mxGeometry x="-415" y="1871" width="170" height="70" as="geometry"/>
                </mxCell>
                <mxCell id="179" value="company_id  (person_id)&#10;installment_id" style="text;strokeColor=none;align=left;verticalAlign=middle;spacingLeft=4;spacingRight=4;overflow=hidden;rotatable=0;points=[[0,0.5],[1,0.5]];portConstraint=eastwest;fontColor=#1A1A1A;fillColor=#FFFFFF;" parent="178" vertex="1">
                    <mxGeometry y="30" width="170" height="40" as="geometry"/>
                </mxCell>
                <mxCell id="180" value="company_payment" style="swimlane;strokeColor=#6F0000;fillColor=#a20025;fontColor=#ffffff;startSize=30;" parent="1" vertex="1">
                    <mxGeometry x="-120" y="1890" width="170" height="70" as="geometry"/>
                </mxCell>
                <mxCell id="181" value="company_id  (person_id)&#10;payment_id" style="text;strokeColor=none;align=left;verticalAlign=middle;spacingLeft=4;spacingRight=4;overflow=hidden;rotatable=0;points=[[0,0.5],[1,0.5]];portConstraint=eastwest;fontColor=#1A1A1A;fillColor=#FFFFFF;" parent="180" vertex="1">
                    <mxGeometry y="30" width="170" height="40" as="geometry"/>
                </mxCell>
                <mxCell id="184" value="" style="rounded=0;whiteSpace=wrap;html=1;fontColor=#1A1A1A;strokeWidth=3;dashed=1;strokeColor=#FF8000;" parent="1" vertex="1">
                    <mxGeometry x="130" y="1680" width="260" height="280" as="geometry"/>
                </mxCell>
                <mxCell id="185" value="financials" style="swimlane;fontColor=#ffffff;startSize=30;fillColor=#fa6800;strokeColor=#C73500;" parent="1" vertex="1">
                    <mxGeometry x="175" y="1700" width="170" height="240" as="geometry"/>
                </mxCell>
                <mxCell id="186" value="id&#10;company_id  (person_id)&#10;customer_id  (person_id)&#10;code&#10;description&#10;payment_id&#10;installment&#10;total&#10;pending&#10;status&#10;generated_at&#10;expired_at&#10;created_at&#10;updated_at" style="text;strokeColor=none;align=left;verticalAlign=middle;spacingLeft=4;spacingRight=4;overflow=hidden;rotatable=0;points=[[0,0.5],[1,0.5]];portConstraint=eastwest;fontColor=#1A1A1A;fillColor=#FFFFFF;" parent="185" vertex="1">
                    <mxGeometry y="30" width="170" height="210" as="geometry"/>
                </mxCell>
                <mxCell id="187" value="Financials" style="text;html=1;strokeColor=none;fillColor=none;align=center;verticalAlign=middle;whiteSpace=wrap;rounded=0;dashed=1;fontSize=50;fontColor=#FF8000;" parent="1" vertex="1">
                    <mxGeometry x="135" y="1620" width="250" height="60" as="geometry"/>
                </mxCell>
                <mxCell id="192" style="edgeStyle=orthogonalEdgeStyle;rounded=0;orthogonalLoop=1;jettySize=auto;html=1;entryX=1;entryY=0.385;entryDx=0;entryDy=0;entryPerimeter=0;fontSize=15;fontColor=#FF8000;" parent="1" source="190" target="135" edge="1">
                    <mxGeometry relative="1" as="geometry">
                        <Array as="points">
                            <mxPoint y="1350"/>
                            <mxPoint y="1350"/>
                        </Array>
                    </mxGeometry>
                </mxCell>
                <mxCell id="190" value="exchanges" style="swimlane;strokeColor=#314354;fontColor=#ffffff;startSize=30;fillColor=#647687;" parent="1" vertex="1">
                    <mxGeometry x="16.25" y="1270" width="180" height="130" as="geometry"/>
                </mxCell>
                <mxCell id="191" value="id&#10;order_id&#10;code&#10;description&#10;created_at&#10;updated_at" style="text;strokeColor=none;align=left;verticalAlign=middle;spacingLeft=4;spacingRight=4;overflow=hidden;rotatable=0;points=[[0,0.5],[1,0.5]];portConstraint=eastwest;fontColor=#1A1A1A;fillColor=#FFFFFF;" parent="190" vertex="1">
                    <mxGeometry y="30" width="180" height="100" as="geometry"/>
                </mxCell>
                <mxCell id="201" style="edgeStyle=orthogonalEdgeStyle;rounded=0;orthogonalLoop=1;jettySize=auto;html=1;fontSize=15;fontColor=#FF99CC;" parent="1" source="198" edge="1">
                    <mxGeometry relative="1" as="geometry">
                        <mxPoint x="-1210" y="290" as="targetPoint"/>
                        <Array as="points">
                            <mxPoint x="-1210" y="290"/>
                        </Array>
                    </mxGeometry>
                </mxCell>
                <mxCell id="198" value="groups" style="swimlane;strokeColor=#432D57;fontColor=#ffffff;startSize=30;fillColor=#FF99CC;" parent="1" vertex="1">
                    <mxGeometry x="-1440" y="200" width="140" height="170" as="geometry">
                        <mxRectangle x="230" y="110" width="80" height="30" as="alternateBounds"/>
                    </mxGeometry>
                </mxCell>
                <mxCell id="199" value="id&#10;group_id&#10;code&#10;name&#10;cnpj&#10;type&#10;active&#10;created_at&#10;updated_at" style="text;strokeColor=none;align=left;verticalAlign=middle;spacingLeft=4;spacingRight=4;overflow=hidden;rotatable=0;points=[[0,0.5],[1,0.5]];portConstraint=eastwest;fontColor=#1A1A1A;fillColor=#FFFFFF;" parent="198" vertex="1">
                    <mxGeometry y="30" width="140" height="140" as="geometry"/>
                </mxCell>
                <mxCell id="200" value="Groups" style="text;html=1;strokeColor=none;fillColor=none;align=center;verticalAlign=middle;whiteSpace=wrap;rounded=0;dashed=1;fontSize=50;fontColor=#FF99CC;" parent="1" vertex="1">
                    <mxGeometry x="-1463.75" y="130" width="187.5" height="60" as="geometry"/>
                </mxCell>
                <mxCell id="202" value="password_resets" style="swimlane;strokeColor=#314354;fillColor=#647687;fontColor=#ffffff;startSize=30;" parent="1" vertex="1">
                    <mxGeometry x="196.25" y="230" width="140" height="80" as="geometry">
                        <mxRectangle x="230" y="110" width="80" height="30" as="alternateBounds"/>
                    </mxGeometry>
                </mxCell>
                <mxCell id="203" value="email&#10;token&#10;created_at" style="text;strokeColor=none;align=left;verticalAlign=middle;spacingLeft=4;spacingRight=4;overflow=hidden;rotatable=0;points=[[0,0.5],[1,0.5]];portConstraint=eastwest;fontColor=#1A1A1A;fillColor=#FFFFFF;" parent="202" vertex="1">
                    <mxGeometry y="30" width="140" height="50" as="geometry"/>
                </mxCell>
                <mxCell id="210" style="edgeStyle=orthogonalEdgeStyle;rounded=0;orthogonalLoop=1;jettySize=auto;html=1;entryX=1;entryY=0.5;entryDx=0;entryDy=0;fontSize=15;fontColor=#0000CC;" parent="1" source="204" target="208" edge="1">
                    <mxGeometry relative="1" as="geometry"/>
                </mxCell>
                <mxCell id="204" value="images" style="swimlane;strokeColor=#3A5431;fillColor=#6d8764;startSize=30;fontColor=#ffffff;" parent="1" vertex="1">
                    <mxGeometry x="-800.01" y="1095" width="150" height="130" as="geometry"/>
                </mxCell>
                <mxCell id="205" value="id&#10;group_id&#10;name&#10;file&#10;created_at&#10;updated_at" style="text;strokeColor=none;align=left;verticalAlign=middle;spacingLeft=4;spacingRight=4;overflow=hidden;rotatable=0;points=[[0,0.5],[1,0.5]];portConstraint=eastwest;fontColor=#1A1A1A;fillColor=#FFFFFF;" parent="204" vertex="1">
                    <mxGeometry y="30" width="150" height="100" as="geometry"/>
                </mxCell>
                <mxCell id="206" value="Images" style="text;html=1;strokeColor=none;fillColor=none;align=center;verticalAlign=middle;whiteSpace=wrap;rounded=0;dashed=1;fontSize=50;fontColor=#007FFF;" parent="1" vertex="1">
                    <mxGeometry x="-926.89" y="1010" width="183.75" height="60" as="geometry"/>
                </mxCell>
                <mxCell id="208" value="company_image" style="swimlane;strokeColor=#314354;fillColor=#647687;fontColor=#ffffff;startSize=30;" parent="1" vertex="1">
                    <mxGeometry x="-1010.01" y="1095" width="150" height="70" as="geometry"/>
                </mxCell>
                <mxCell id="209" value="company_id  (person_id)&#10;image_id" style="text;strokeColor=none;align=left;verticalAlign=middle;spacingLeft=4;spacingRight=4;overflow=hidden;rotatable=0;points=[[0,0.5],[1,0.5]];portConstraint=eastwest;fontColor=#1A1A1A;fillColor=#FFFFFF;" parent="208" vertex="1">
                    <mxGeometry y="30" width="150" height="40" as="geometry"/>
                </mxCell>
                <mxCell id="212" value="person_id" style="text;html=1;strokeColor=none;fillColor=none;align=center;verticalAlign=middle;whiteSpace=wrap;rounded=0;rotation=0;fontColor=#FFFFFF;fontSize=15;" parent="1" vertex="1">
                    <mxGeometry x="-1117.5" y="730" width="97.5" height="20" as="geometry"/>
                </mxCell>
                <mxCell id="215" value="Utils" style="text;html=1;strokeColor=none;fillColor=none;align=center;verticalAlign=middle;whiteSpace=wrap;rounded=0;dashed=1;fontSize=50;fontColor=#00CC66;" parent="1" vertex="1">
                    <mxGeometry x="190" y="150" width="140" height="60" as="geometry"/>
                </mxCell>
                <mxCell id="216" value="company_parameters" style="swimlane;strokeColor=#006EAF;fillColor=#1ba1e2;fontColor=#ffffff;startSize=30;" parent="1" vertex="1">
                    <mxGeometry x="186.25" y="330" width="160" height="210" as="geometry">
                        <mxRectangle x="230" y="110" width="80" height="30" as="alternateBounds"/>
                    </mxGeometry>
                </mxCell>
                <mxCell id="217" value="id&#10;company_id  (person_id)&#10;geolocation&#10;bonus&#10;checkin&#10;stock&#10;sync&#10;set_discount&#10;sort_views&#10;budgets&#10;created_at&#10;updated_at" style="text;strokeColor=none;align=left;verticalAlign=middle;spacingLeft=4;spacingRight=4;overflow=hidden;rotatable=0;points=[[0,0.5],[1,0.5]];portConstraint=eastwest;fontColor=#1A1A1A;fillColor=#FFFFFF;" parent="216" vertex="1">
                    <mxGeometry y="30" width="160" height="180" as="geometry"/>
                </mxCell>
                <mxCell id="219" value="migrations" style="swimlane;strokeColor=#3700CC;fillColor=#6a00ff;fontColor=#ffffff;startSize=30;" parent="1" vertex="1">
                    <mxGeometry x="190" y="560" width="140" height="80" as="geometry">
                        <mxRectangle x="230" y="110" width="80" height="30" as="alternateBounds"/>
                    </mxGeometry>
                </mxCell>
                <mxCell id="220" value="id&#10;migration&#10;batch" style="text;strokeColor=none;align=left;verticalAlign=middle;spacingLeft=4;spacingRight=4;overflow=hidden;rotatable=0;points=[[0,0.5],[1,0.5]];portConstraint=eastwest;fontColor=#1A1A1A;fillColor=#FFFFFF;" parent="219" vertex="1">
                    <mxGeometry y="30" width="140" height="50" as="geometry"/>
                </mxCell>
                <mxCell id="221" value="customer_installment" style="swimlane;strokeColor=#3700CC;fillColor=#6a00ff;fontColor=#ffffff;startSize=30;" parent="1" vertex="1">
                    <mxGeometry x="-310" y="1960" width="170" height="70" as="geometry"/>
                </mxCell>
                <mxCell id="222" value="customer_id  (person_id)&#10;installment_id" style="text;strokeColor=none;align=left;verticalAlign=middle;spacingLeft=4;spacingRight=4;overflow=hidden;rotatable=0;points=[[0,0.5],[1,0.5]];portConstraint=eastwest;fontColor=#1A1A1A;fillColor=#FFFFFF;" parent="221" vertex="1">
                    <mxGeometry y="30" width="170" height="40" as="geometry"/>
                </mxCell>
            </root>
        </mxGraphModel>
    </diagram>
</mxfile>